# xmcd
#
# Track frame offsets: 
#        150
#        10430
#        24617
#        37454
#        50249
#        63574
#        76362
#        88198
#        102570
#        114577
#        127025
#        141422
#        155979
#        167424
#        180172
#        190948
#        203957
#        216153
#        228890
#        240435
#        253870
#        265533
#        278976
#        289925
#        301069
#
# Disc length: 4221 seconds
#
# Revision: 0
# Processed by: cddbd v1.5.2PL0 Copyright (c) Steve Scherf et al.
# Submitted via: ExactAudioCopyFreeDBPlugin 1.0
#
DISCID=7a107b19
DTITLE=Various Artist - Cross the Tracks - Essential Pioneer Blues (D
DTITLE=isc 2)
DYEAR=2011
DGENRE=Blues
TTITLE0=John Lee Hooker - Dimples
TTITLE1=Howlin' Wolf - Smokestack Lightnin'
TTITLE2=Big Mama Thornton - Hound Dog
TTITLE3=Amos Milburn - Chicken Shack Boogie
TTITLE4=B.B. King - Woke up This Morning
TTITLE5=Pete Johnson with Joe Turner - Roll 'em Pete
TTITLE6=Fats Domino - The Fat Man
TTITLE7=Elmore James - Dust My Broom
TTITLE8=Otis Rush - All You Love (I Miss Loving)
TTITLE9=Earl Hooker - Blue Guitar
TTITLE10=Lowell Fulson - Reconsider Baby
TTITLE11=Ruth Brown - 5 10 15 Hours
TTITLE12=Little Walter Juke - My Babe
TTITLE13=Jimmy Reed - Shame, Shame, Shame
TTITLE14=Little Junior's Blue Flames - Mystery Train
TTITLE15=Arthur "Big Boy" Crudup - That's All Right
TTITLE16=Billy Boy Arnold - I Wish You Would
TTITLE17=Bobby Parker - Blues Get off My Shoulder
TTITLE18=Smiley Lewis - I Hear You Knockin'
TTITLE19=Roy Milton and His Solid Senders - R.M. Blues
TTITLE20=Sonny Boy Williamson - Don't Start Me Talkin'
TTITLE21=T-Bone Walker - T-Bone Shuffle
TTITLE22=Albert Ammons - Shout for Joy
TTITLE23=Big Bill Broonzy - All by Myself
TTITLE24=Albert King - Born under a Bad Sign
EXTD=
EXTT0=
EXTT1=
EXTT2=
EXTT3=
EXTT4=
EXTT5=
EXTT6=
EXTT7=
EXTT8=
EXTT9=
EXTT10=
EXTT11=
EXTT12=
EXTT13=
EXTT14=
EXTT15=
EXTT16=
EXTT17=
EXTT18=
EXTT19=
EXTT20=
EXTT21=
EXTT22=
EXTT23=
EXTT24=
PLAYORDER=
